<?xml version="1.0" encoding="utf-8"?>
<!-- Generator: Adobe Illustrator 25.2.1, SVG Export Plug-In . SVG Version: 6.00 Build 0)  -->
<svg version="1.1" id="Layer_1" xmlns="http://www.w3.org/2000/svg" xmlns:xlink="http://www.w3.org/1999/xlink" x="0px" y="0px"
	 viewBox="0 0 222.78 107.72" style="enable-background:new 0 0 222.78 107.72;" xml:space="preserve">
<style type="text/css">
	.st0{fill:#006838;}
	.st1{fill-rule:evenodd;clip-rule:evenodd;fill:#BF2430;}
	.st2{fill:#BE1E2D;}
	.st3{fill:#BF2430;}
	.st4{fill:#FFFFFF;}
</style>
<g>
	<g>
		<path class="st0" d="M48.68,77.78v3.45h7.04l1.29,2.56h-8.49c-0.87,0-1.57-0.36-2.1-1.07c-0.34-0.47-0.5-0.98-0.5-1.53v-9.54
			c0-0.87,0.35-1.56,1.04-2.08c0.47-0.35,0.99-0.52,1.56-0.52h8.49l-1.29,2.56h-7.04v3.61h6.48v2.56H48.68z"/>
		<path class="st0" d="M64.89,80.8l3.81-11.75h2.94l-4,12.33c-0.59,1.72-1.5,2.59-2.75,2.6c-1.24-0.01-2.15-0.88-2.73-2.6
			l-4.02-12.33h2.94L64.89,80.8z"/>
		<path class="st0" d="M75.84,77.78v3.45h7.04l1.29,2.56h-8.49c-0.87,0-1.57-0.36-2.1-1.07c-0.34-0.47-0.5-0.98-0.5-1.53v-9.54
			c0-0.87,0.35-1.56,1.04-2.08c0.47-0.35,0.99-0.52,1.56-0.52h8.49l-1.29,2.56h-7.04v3.61h6.48v2.56H75.84z"/>
		<path class="st0" d="M88.91,71.61v12.18h-2.75V71.65c0-0.88,0.35-1.58,1.04-2.09c0.47-0.34,0.98-0.5,1.54-0.5h3.72
			c1.66,0,3,0.54,4,1.61c0.85,0.92,1.28,2.05,1.28,3.39v0.56c0,1.68-0.62,2.99-1.85,3.92c-0.47,0.35-0.98,0.61-1.54,0.8l3.7,4.46
			h-3.43l-3.41-4.17h-2.12l1.47-2.56h1.9c1.13,0,1.89-0.42,2.28-1.26c0.16-0.35,0.23-0.74,0.23-1.18v-0.56
			c0-1.16-0.48-1.92-1.45-2.27c-0.32-0.12-0.68-0.17-1.06-0.17H88.91z"/>
		<path class="st0" d="M99.56,73.26c0-1.19,0.51-2.2,1.54-3.03c0.99-0.79,2.18-1.18,3.55-1.18h1.83c1.11,0,2.19,0.28,3.23,0.83
			c0.43,0.25,0.78,0.5,1.04,0.78l-2.41,2c-0.39-0.59-0.93-0.94-1.62-1.03c-0.08-0.01-0.17-0.02-0.25-0.02h-1.83
			c-0.9,0-1.57,0.27-2.03,0.81c-0.2,0.27-0.31,0.55-0.31,0.83c0,0.5,0.5,0.94,1.49,1.3c0.31,0.12,0.84,0.28,1.58,0.48
			c1.8,0.5,3.05,1,3.77,1.47c1.17,0.78,1.77,1.8,1.78,3.06c0,1.18-0.53,2.18-1.58,3.01c-1.04,0.8-2.27,1.2-3.7,1.2h-1.83
			c-1.16,0-2.29-0.28-3.38-0.83c-0.46-0.25-0.81-0.5-1.08-0.78l2.37-1.98c0.42,0.57,1.01,0.91,1.76,1.01
			c0.12,0.01,0.23,0.02,0.32,0.02h1.83c0.97,0,1.7-0.28,2.19-0.83c0.22-0.26,0.32-0.53,0.32-0.81c0-0.57-0.5-1.04-1.49-1.42
			c-0.14-0.06-1.01-0.33-2.6-0.79c-1.83-0.53-3.08-1.17-3.73-1.92C99.82,74.83,99.56,74.1,99.56,73.26z"/>
		<path class="st0" d="M115.85,71.61v12.18h-2.75V71.65c0-0.88,0.35-1.58,1.04-2.09c0.47-0.34,0.98-0.5,1.54-0.5h3.72
			c1.66,0,3,0.54,4,1.61c0.85,0.92,1.27,2.05,1.27,3.39v0.56c0,1.67-0.62,2.97-1.85,3.92c-0.96,0.72-2.1,1.09-3.43,1.09h-3.38
			l1.47-2.56h1.9c1.12,0,1.89-0.42,2.28-1.26c0.16-0.35,0.23-0.74,0.23-1.18v-0.56c0-1.16-0.48-1.92-1.45-2.27
			c-0.32-0.12-0.68-0.17-1.06-0.17H115.85z"/>
		<path class="st0" d="M129.22,77.78v3.45h7.04l1.29,2.56h-8.49c-0.87,0-1.57-0.36-2.1-1.07c-0.33-0.47-0.5-0.98-0.5-1.53v-9.54
			c0-0.87,0.35-1.56,1.04-2.08c0.47-0.35,0.99-0.52,1.56-0.52h8.49l-1.29,2.56h-7.04v3.61h6.48v2.56H129.22z"/>
		<path class="st0" d="M141.7,74.66v3.53c0,1.01,0.33,1.82,1.01,2.42c0.47,0.41,0.98,0.62,1.53,0.62h1.83
			c0.74,0,1.37-0.27,1.89-0.81c0.07-0.08,0.13-0.15,0.18-0.21l2.39,1.98c-0.67,0.69-1.71,1.17-3.11,1.45
			c-0.49,0.1-0.94,0.16-1.35,0.16h-1.83c-1.48,0-2.75-0.57-3.79-1.71c-0.99-1.09-1.49-2.39-1.49-3.9v-3.53
			c0-1.58,0.53-2.92,1.58-4.01c1.04-1.06,2.27-1.59,3.7-1.59h1.83c1.16,0,2.29,0.28,3.38,0.83c0.45,0.25,0.81,0.5,1.08,0.78l-2.39,2
			c-0.42-0.58-1-0.92-1.74-1.03c-0.12-0.01-0.23-0.02-0.32-0.02h-1.83c-0.83,0-1.49,0.39-1.99,1.18
			C141.88,73.35,141.7,73.97,141.7,74.66z"/>
		<path class="st0" d="M152.64,69.05h2.75v14.74h-2.75V69.05z"/>
		<path class="st0" d="M166.75,81.83h-5.98l1.47-2.56h3.68l-2.33-7.23l-3.81,11.75h-2.95l4-12.33c0.59-1.72,1.5-2.59,2.75-2.6
			c1.24,0.01,2.15,0.88,2.73,2.6l4.02,12.33h-2.95L166.75,81.83z"/>
		<path class="st0" d="M174.65,81.23h6.5l1.27,2.56h-7.94c-0.89,0-1.59-0.36-2.1-1.09c-0.32-0.45-0.48-0.96-0.48-1.51V69.05h2.75
			V81.23z"/>
	</g>
	<path class="st0" d="M54.67,88.55l-2.23,6.98h-2.13l-2.23-6.98l-0.76,8.56h-2.16l0.92-8.99c0.09-0.8,0.44-1.37,1.05-1.69
		c0.25-0.12,0.52-0.18,0.8-0.18c0.6,0,1.06,0.25,1.38,0.75c0.08,0.12,0.14,0.26,0.2,0.4l1.87,5.91l1.87-5.91
		c0.2-0.59,0.59-0.95,1.17-1.09c0.14-0.04,0.28-0.06,0.41-0.06c0.63,0,1.13,0.26,1.48,0.79c0.2,0.31,0.32,0.67,0.37,1.08l0.92,8.99
		h-2.16L54.67,88.55z"/>
	<path class="st0" d="M61.03,92.7v2.53h5.15l0.95,1.87h-6.22c-0.64,0-1.15-0.26-1.54-0.78c-0.25-0.34-0.37-0.71-0.37-1.12v-6.98
		c0-0.63,0.25-1.14,0.76-1.52c0.34-0.26,0.72-0.38,1.14-0.38h6.22l-0.95,1.87h-5.15v2.64h4.75v1.87H61.03z"/>
	<path class="st0" d="M68.59,88.22c0-0.64,0.25-1.15,0.76-1.53c0.34-0.25,0.72-0.37,1.13-0.37h2.72c1.09,0,2.01,0.42,2.77,1.25
		c0.73,0.79,1.09,1.75,1.09,2.85V93c0,1.15-0.39,2.13-1.16,2.94c-0.76,0.78-1.67,1.16-2.71,1.16h-4.61V88.22z M75.05,93v-2.58
		c0-0.75-0.25-1.34-0.75-1.79c-0.32-0.29-0.69-0.44-1.09-0.44h-2.6v7.04h2.6c0.6,0,1.09-0.29,1.46-0.88
		C74.92,93.95,75.05,93.5,75.05,93z"/>
	<path class="st0" d="M78.73,86.32h2.01v10.79h-2.01V86.32z"/>
	<path class="st0" d="M84.25,90.42V93c0,0.74,0.25,1.33,0.74,1.77c0.34,0.3,0.71,0.45,1.12,0.45h1.34c0.54,0,1-0.2,1.38-0.6
		c0.05-0.06,0.1-0.11,0.13-0.16l1.75,1.45c-0.49,0.5-1.25,0.86-2.27,1.06c-0.36,0.08-0.69,0.11-0.99,0.11H86.1
		c-1.09,0-2.01-0.42-2.77-1.25c-0.73-0.79-1.09-1.75-1.09-2.85v-2.58c0-1.15,0.39-2.13,1.16-2.94c0.76-0.78,1.67-1.16,2.71-1.16
		h1.34c0.85,0,1.67,0.2,2.47,0.61c0.33,0.18,0.6,0.37,0.79,0.57l-1.75,1.46c-0.31-0.43-0.73-0.68-1.28-0.75
		c-0.09-0.01-0.17-0.01-0.24-0.01H86.1c-0.6,0-1.09,0.29-1.46,0.87C84.38,89.46,84.25,89.92,84.25,90.42z"/>
	<path class="st0" d="M98.55,95.67h-4.38l1.08-1.87h2.7l-1.71-5.3l-2.79,8.6h-2.16l2.93-9.03c0.43-1.26,1.1-1.89,2.01-1.9
		c0.91,0.01,1.58,0.64,2,1.9l2.94,9.03h-2.16L98.55,95.67z"/>
	<path class="st0" d="M104.33,95.23h4.76l0.93,1.87h-5.81c-0.65,0-1.16-0.26-1.54-0.79c-0.24-0.33-0.36-0.7-0.36-1.11v-8.89h2.01
		V95.23z"/>
	<g>
		<path class="st1" d="M214.52,34.8c0.17,0.54,0.1,1.16-0.24,1.66c-2.59,3.74-6.89,6.06-10.88,6.78v18.41
			c0,2.29-2.82,4.56-4.99,4.56l-1.65,0.05l-0.1,0h-72.63v0h-81.2l-5.38,37.65c-0.07,0.47-0.3,0.88-0.63,1.15
			c-0.34,0.3-0.77,0.47-1.25,0.47c-0.47,0-0.9-0.16-1.23-0.45c-0.34-0.29-0.58-0.7-0.65-1.15l-7.15-48.17l-0.77,8.68
			c-0.04,0.48-0.27,0.91-0.61,1.23c-0.34,0.31-0.79,0.49-1.28,0.49h-4.43l-3.54,22.21c-0.07,0.45-0.3,0.85-0.62,1.13
			c-0.33,0.28-0.75,0.45-1.2,0.46h-0.01c-0.44,0-0.86-0.15-1.21-0.42c-0.33-0.25-0.58-0.64-0.68-1.07L7.65,67.03H3.52v-3.8h5.67
			c0.43,0,0.86,0.15,1.19,0.43c0.34,0.27,0.58,0.64,0.66,1.07l2.75,12.96l2.18-13.72c0.08-0.46,0.31-0.86,0.65-1.14
			c0.34-0.3,0.76-0.47,1.23-0.47h4.31l2.02-22.92c0.05-0.48,0.25-0.9,0.59-1.22c0.33-0.31,0.77-0.51,1.23-0.52h0.07
			c0.46,0,0.9,0.17,1.23,0.47c0.34,0.28,0.56,0.7,0.63,1.16l7.61,51.18l3.8-26.51c0.06-0.47,0.3-0.88,0.64-1.16
			c0.33-0.29,0.76-0.47,1.24-0.47h155.45c2.56-0.29,3.02-2.3,2.97-4.42V43.27c-3.93-0.69-7.34-3.01-9.95-6.81
			c-0.34-0.5-0.41-1.11-0.24-1.66c-3.68-6.28-4.74-14.66-4.74-19.01c0-2.65,0.84-4.69,2.51-6.07c1.55-1.28,3.53-1.73,5.15-1.85
			c0.56-0.56,1.5-0.91,2.55-0.91c1.72,0,3.11,0.96,3.11,2.16s-1.39,2.15-3.11,2.15c-1.09,0-2.05-0.38-2.6-0.98
			c-1.2,0.12-2.55,0.44-3.57,1.3c-1.09,0.9-1.63,2.27-1.63,4.19c0,4.08,0.85,10.31,3.23,15.51c0.35,0.79,0.73,1.51,1.13,2.2
			c0.53,0.06,1.02,0.34,1.34,0.8c2.36,3.43,5.37,5.24,8.95,5.37c3.75,0,6.92-1.81,9.36-5.37c0.32-0.47,0.82-0.75,1.34-0.82
			c0.39-0.68,0.78-1.41,1.13-2.2c2.39-5.2,3.24-11.43,3.24-15.51c0-1.93-0.54-3.29-1.64-4.19c-1-0.85-2.37-1.18-3.56-1.29
			c-0.56,0.6-1.53,0.98-2.59,0.98c-1.72,0-3.12-0.98-3.12-2.17c0-1.19,1.4-2.17,3.12-2.17c1.04,0,1.98,0.37,2.54,0.92
			c1.64,0.13,3.61,0.57,5.17,1.87c1.66,1.37,2.51,3.42,2.51,6.05C219.26,20.13,218.21,28.52,214.52,34.8z"/>
	</g>
	<g>
		<polygon class="st0" points="79.98,12.06 65.09,12.06 65.09,20.44 75.74,20.44 		"/>
		<path class="st0" d="M52.13,51.6V40.3h21.23v-8.38H43.07v19.57c0,1.82,0.55,3.49,1.65,5.01c1.73,2.33,4.02,3.49,6.88,3.49h27.82
			l-4.24-8.38H52.13z"/>
		<path class="st0" d="M126.95,21.69l-10,31.25h-9.53l-10-31.25l-3.41,38.3h-9.65l4.12-40.21c0.39-3.6,1.96-6.12,4.71-7.56
			c1.14-0.55,2.33-0.83,3.59-0.83c2.71,0,4.76,1.12,6.18,3.37c0.35,0.55,0.65,1.14,0.88,1.78l8.35,26.43l8.35-26.43
			c0.9-2.63,2.65-4.26,5.23-4.89c0.63-0.17,1.24-0.25,1.82-0.25c2.82,0,5.04,1.19,6.65,3.56c0.9,1.4,1.45,3.01,1.65,4.83l4.12,40.21
			h-9.65L126.95,21.69z"/>
		<path class="st0" d="M145.36,25.5c0-3.9,1.69-7.2,5.06-9.91c3.25-2.58,7.14-3.88,11.65-3.88h6c3.65,0,7.18,0.91,10.59,2.73
			c1.41,0.8,2.55,1.65,3.41,2.54l-7.88,6.54c-1.29-1.95-3.06-3.07-5.29-3.37c-0.27-0.04-0.55-0.06-0.82-0.06h-6
			c-2.94,0-5.16,0.89-6.65,2.67c-0.67,0.89-1,1.8-1,2.73c0,1.65,1.63,3.07,4.88,4.26c1.02,0.38,2.74,0.91,5.18,1.59
			c5.88,1.65,10,3.26,12.35,4.83c3.84,2.54,5.78,5.89,5.82,10.04c0,3.85-1.73,7.14-5.18,9.85c-3.41,2.63-7.45,3.94-12.12,3.94h-6
			c-3.8,0-7.49-0.91-11.06-2.73c-1.49-0.8-2.67-1.65-3.53-2.54l7.76-6.48c1.37,1.86,3.29,2.97,5.76,3.3
			c0.39,0.04,0.74,0.06,1.06,0.06h6c3.18,0,5.57-0.91,7.18-2.73c0.71-0.85,1.06-1.74,1.06-2.67c0-1.86-1.63-3.41-4.88-4.64
			c-0.47-0.21-3.31-1.08-8.53-2.6c-6-1.74-10.08-3.83-12.23-6.29C146.22,30.64,145.36,28.25,145.36,25.5z"/>
		<rect x="43.09" y="2.18" class="st2" width="9.08" height="28.13"/>
		
			<rect x="43.37" y="0.32" transform="matrix(-1.836970e-16 1 -1 -1.836970e-16 63.8152 -31.3125)" class="st2" width="8.38" height="31.86"/>
	</g>
	<polygon class="st3" points="177.76,97.14 112.8,97.14 112.8,85.58 177.76,85.58 182.42,91.54 	"/>
	<g>
		<path class="st4" d="M115.47,89.29c0-0.78,0.34-1.44,1.01-1.98c0.65-0.52,1.43-0.77,2.33-0.77h1.2c0.73,0,1.43,0.18,2.11,0.55
			c0.28,0.16,0.51,0.33,0.68,0.51l-1.57,1.31c-0.26-0.39-0.61-0.61-1.06-0.67c-0.05-0.01-0.11-0.01-0.16-0.01h-1.2
			c-0.59,0-1.03,0.18-1.33,0.53c-0.13,0.18-0.2,0.36-0.2,0.55c0,0.33,0.33,0.61,0.97,0.85c0.2,0.08,0.55,0.18,1.03,0.32
			c1.17,0.33,2,0.65,2.47,0.96c0.77,0.51,1.16,1.18,1.16,2c0,0.77-0.34,1.43-1.03,1.97c-0.68,0.52-1.49,0.79-2.42,0.79h-1.2
			c-0.76,0-1.5-0.18-2.21-0.55c-0.3-0.16-0.53-0.33-0.7-0.51l1.55-1.29c0.27,0.37,0.66,0.59,1.15,0.66
			c0.08,0.01,0.15,0.01,0.21,0.01h1.2c0.63,0,1.11-0.18,1.43-0.55c0.14-0.17,0.21-0.35,0.21-0.53c0-0.37-0.33-0.68-0.98-0.93
			c-0.09-0.04-0.66-0.22-1.7-0.52c-1.2-0.35-2.01-0.77-2.44-1.26C115.64,90.32,115.47,89.84,115.47,89.29z"/>
		<path class="st4" d="M124.27,86.54h1.81v5.98c0,0.67,0.22,1.2,0.67,1.6c0.29,0.26,0.61,0.39,0.98,0.39h0.96
			c0.54,0,0.98-0.26,1.3-0.77c0.24-0.36,0.35-0.77,0.35-1.22v-5.98h1.8v5.98c0,1.03-0.34,1.91-1.03,2.63
			c-0.68,0.69-1.49,1.04-2.42,1.04h-0.96c-0.97,0-1.8-0.37-2.48-1.12c-0.65-0.71-0.97-1.56-0.97-2.55V86.54z"/>
		<path class="st4" d="M135.53,88.22v7.97h-1.8v-7.94c0-0.58,0.23-1.03,0.68-1.37c0.31-0.22,0.64-0.33,1.01-0.33h2.43
			c1.09,0,1.96,0.35,2.62,1.05c0.56,0.6,0.83,1.34,0.83,2.22v0.37c0,1.09-0.4,1.95-1.21,2.56c-0.63,0.47-1.37,0.71-2.24,0.71h-2.21
			l0.96-1.67h1.25c0.74,0,1.23-0.27,1.49-0.82c0.1-0.23,0.15-0.49,0.15-0.77v-0.37c0-0.76-0.32-1.26-0.95-1.48
			c-0.21-0.08-0.44-0.11-0.69-0.11H135.53z"/>
		<path class="st4" d="M144.37,88.22v7.97h-1.8v-7.94c0-0.58,0.23-1.03,0.68-1.37c0.31-0.22,0.64-0.33,1.01-0.33h2.43
			c1.09,0,1.96,0.35,2.62,1.05c0.56,0.6,0.83,1.34,0.83,2.22v0.37c0,1.09-0.4,1.95-1.21,2.56c-0.63,0.47-1.37,0.71-2.24,0.71h-2.21
			l0.96-1.67h1.25c0.74,0,1.23-0.27,1.49-0.82c0.1-0.23,0.15-0.49,0.15-0.77v-0.37c0-0.76-0.32-1.26-0.95-1.48
			c-0.21-0.08-0.44-0.11-0.69-0.11H144.37z"/>
		<path class="st4" d="M155.69,96.31h-1.2c-0.97,0-1.8-0.37-2.48-1.12c-0.65-0.71-0.98-1.56-0.98-2.55v-2.56
			c0-1.03,0.34-1.91,1.03-2.63c0.68-0.69,1.49-1.04,2.42-1.04h1.2c0.97,0,1.8,0.37,2.48,1.12c0.65,0.71,0.97,1.56,0.97,2.55v2.56
			c0,1.03-0.34,1.91-1.03,2.63C157.43,95.96,156.62,96.31,155.69,96.31z M154.49,94.64h1.2c0.54,0,0.98-0.26,1.3-0.79
			c0.23-0.36,0.34-0.77,0.34-1.2v-2.56c0-0.67-0.22-1.2-0.67-1.6c-0.29-0.26-0.62-0.39-0.98-0.39h-1.2c-0.54,0-0.97,0.26-1.3,0.77
			c-0.23,0.36-0.35,0.77-0.35,1.22v2.56c0,0.66,0.22,1.19,0.66,1.59C153.8,94.5,154.13,94.64,154.49,94.64z"/>
		<path class="st4" d="M162.38,88.22v7.97h-1.8v-7.94c0-0.58,0.23-1.03,0.68-1.37c0.31-0.22,0.64-0.33,1.01-0.33h2.43
			c1.09,0,1.96,0.35,2.62,1.05c0.56,0.6,0.83,1.34,0.83,2.22v0.37c0,1.1-0.4,1.95-1.21,2.56c-0.31,0.23-0.64,0.4-1.01,0.52
			l2.42,2.92h-2.24l-2.23-2.73h-1.39l0.96-1.67h1.25c0.74,0,1.23-0.27,1.49-0.82c0.1-0.23,0.15-0.49,0.15-0.77v-0.37
			c0-0.76-0.32-1.26-0.95-1.48c-0.21-0.08-0.44-0.11-0.69-0.11H162.38z"/>
		<path class="st4" d="M171.93,86.54l-0.96,1.67h-1.77v-1.67H171.93z M173.39,96.18h-1.81v-7.94c0-0.57,0.23-1.02,0.68-1.36
			c0.31-0.23,0.65-0.34,1.02-0.34h2.67v1.67h-2.56V96.18z"/>
	</g>
</g>
</svg>
